_RobotoSerifText-RegularWdth1500.ufo
<glyph name="asterisk" format="2">
  <advance width="468.08"/>
  <unicode hex="002A"/>
  <outline>
    <contour>
      <point x="75.25999999999999" y="403.9" type="line"/>
      <point x="132.04" y="433.75"/>
      <point x="150.92000000000002" y="461.7"/>
      <point x="245.08" y="511.9" type="curve"/>
      <point x="223.0" y="544.6" type="line"/>
      <point x="128.0" y="496.3"/>
      <point x="91.9" y="497.4"/>
      <point x="35.96" y="466.5" type="curve"/>
    </contour>
    <contour>
      <point x="223.0" y="511.9" type="curve"/>
      <point x="245.08" y="544.6" type="line"/>
      <point x="150.92000000000002" y="594.75"/>
      <point x="132.04" y="624.6"/>
      <point x="75.25999999999999" y="652.55" type="curve"/>
      <point x="35.96" y="589.95" type="line"/>
      <point x="93.16" y="560.0"/>
      <point x="128.0" y="561.1"/>
    </contour>
    <contour>
      <point x="196.92" y="347.4" type="curve"/>
      <point x="272.08" y="347.4" type="line"/>
      <point x="272.08" y="404.3"/>
      <point x="255.7" y="435.0"/>
      <point x="255.7" y="528.7" type="curve"/>
      <point x="213.3" y="528.7" type="line"/>
      <point x="213.3" y="435.0"/>
      <point x="196.92" y="404.3"/>
    </contour>
    <contour>
      <point x="213.3" y="528.7" type="curve"/>
      <point x="255.7" y="528.7" type="line"/>
      <point x="255.7" y="624.3"/>
      <point x="272.08" y="653.1"/>
      <point x="272.08" y="710.0" type="curve"/>
      <point x="196.92" y="710.0" type="line"/>
      <point x="196.92" y="653.1"/>
      <point x="213.3" y="624.3"/>
    </contour>
    <contour>
      <point x="393.74" y="403.9" type="curve"/>
      <point x="432.12" y="466.5" type="line"/>
      <point x="377.02" y="497.4"/>
      <point x="340.91999999999996" y="496.3"/>
      <point x="246.76" y="544.6" type="curve"/>
      <point x="225.10000000000002" y="511.9" type="line"/>
      <point x="320.6" y="461.7"/>
      <point x="336.96" y="433.75"/>
    </contour>
    <contour>
      <point x="246.76" y="511.9" type="line"/>
      <point x="340.91999999999996" y="561.1"/>
      <point x="376.18" y="560.0"/>
      <point x="432.12" y="589.95" type="curve"/>
      <point x="393.74" y="652.55" type="line"/>
      <point x="336.96" y="624.6"/>
      <point x="320.6" y="594.75"/>
      <point x="225.10000000000002" y="544.6" type="curve"/>
    </contour>
  </outline>
</glyph>
<glyph name="hyphen" format="2">
  <advance width="515.04"/>
  <unicode hex="002D"/>
  <outline>
    <contour>
      <point x="91.9" y="334.75" type="line"/>
      <point x="91.9" y="255.25" type="line"/>
      <point x="423.14" y="255.25" type="line"/>
      <point x="423.14" y="334.75" type="line"/>
    </contour>
  </outline>
</glyph>
<glyph name="K" format="2">
  <advance width="844.78"/>
  <unicode hex="004B"/>
  <anchor x="434.34000000000003" y="741.0" name="top"/>
  <anchor x="434.34000000000003" y="0.0" name="bottom"/>
  <outline>
    <contour>
      <point x="53.0" y="0.0" type="line"/>
      <point x="378.0" y="0.0" type="line"/>
      <point x="378.0" y="48.75" type="line"/>
      <point x="367.08000000000004" y="48.75" type="line" smooth="yes"/>
      <point x="322.5" y="48.75"/>
      <point x="265.0" y="51.75"/>
      <point x="265.0" y="58.75" type="curve" smooth="yes"/>
      <point x="265.0" y="651.25" type="line" smooth="yes"/>
      <point x="265.0" y="658.25"/>
      <point x="322.5" y="661.25"/>
      <point x="367.08000000000004" y="661.25" type="curve" smooth="yes"/>
      <point x="378.0" y="661.25" type="line"/>
      <point x="378.0" y="710.0" type="line"/>
      <point x="53.0" y="710.0" type="line"/>
      <point x="53.0" y="661.25" type="line"/>
      <point x="66.0" y="661.25" type="line" smooth="yes"/>
      <point x="123.5" y="661.25"/>
      <point x="165.5" y="654.25"/>
      <point x="165.5" y="625.25" type="curve" smooth="yes"/>
      <point x="165.5" y="84.75" type="line" smooth="yes"/>
      <point x="165.5" y="55.75"/>
      <point x="123.5" y="48.75"/>
      <point x="66.0" y="48.75" type="curve" smooth="yes"/>
      <point x="53.0" y="48.75" type="line"/>
    </contour>
    <contour>
      <point x="499.08000000000004" y="0.0" type="line"/>
      <point x="827.28" y="0.0" type="line"/>
      <point x="827.28" y="48.75" type="line"/>
      <point x="814.28" y="48.75" type="line" smooth="yes"/>
      <point x="761.28" y="48.75"/>
      <point x="739.1800000000001" y="53.0"/>
      <point x="709.78" y="81.75" type="curve" smooth="yes"/>
      <point x="379.56" y="405.25" type="line"/>
      <point x="380.28" y="355.75" type="line"/>
      <point x="684.0799999999999" y="631.8" type="line" smooth="yes"/>
      <point x="709.24" y="655.2"/>
      <point x="734.5799999999999" y="661.25"/>
      <point x="777.0799999999999" y="661.25" type="curve" smooth="yes"/>
      <point x="795.66" y="661.25" type="line"/>
      <point x="795.66" y="710.0" type="line"/>
      <point x="513.38" y="710.0" type="line"/>
      <point x="513.38" y="661.25" type="line"/>
      <point x="523.88" y="661.25" type="line" smooth="yes"/>
      <point x="567.38" y="661.25"/>
      <point x="615.88" y="658.35"/>
      <point x="617.88" y="651.35" type="curve"/>
      <point x="304.42" y="363.95" type="line"/>
      <point x="304.42" y="346.15" type="line"/>
      <point x="608.5" y="58.75" type="line"/>
      <point x="608.5" y="51.75"/>
      <point x="553.08" y="48.75"/>
      <point x="509.58000000000004" y="48.75" type="curve" smooth="yes"/>
      <point x="499.08000000000004" y="48.75" type="line"/>
    </contour>
  </outline>
</glyph>
<glyph name="N" format="2">
  <advance width="932"/>
  <unicode hex="004E"/>
  <anchor x="476.18" y="741.0" name="top"/>
  <anchor x="476.18" y="0.0" name="bottom"/>
  <outline>
    <contour>
      <point x="53.0" y="0.0" type="line"/>
      <point x="360.9" y="0.0" type="line"/>
      <point x="360.9" y="48.75" type="line"/>
      <point x="344.4" y="48.75" type="line" smooth="yes"/>
      <point x="293.9" y="48.75"/>
      <point x="236.39999999999998" y="56.75"/>
      <point x="236.39999999999998" y="63.75" type="curve" smooth="yes"/>
      <point x="236.39999999999998" y="673.0" type="line"/>
      <point x="221.44" y="670.0" type="line"/>
      <point x="670.3199999999999" y="0.0" type="line"/>
      <point x="773.14" y="0.0" type="line"/>
      <point x="773.14" y="620.5" type="line" smooth="yes"/>
      <point x="773.14" y="649.5"/>
      <point x="815.56" y="661.25"/>
      <point x="873.06" y="661.25" type="curve" smooth="yes"/>
      <point x="887.14" y="661.25" type="line"/>
      <point x="887.14" y="710.0" type="line"/>
      <point x="579.24" y="710.0" type="line"/>
      <point x="579.24" y="661.25" type="line"/>
      <point x="595.3199999999999" y="661.25" type="line" smooth="yes"/>
      <point x="646.24" y="661.25"/>
      <point x="703.74" y="653.25"/>
      <point x="703.74" y="646.25" type="curve" smooth="yes"/>
      <point x="703.74" y="96.5" type="line"/>
      <point x="716.0999999999999" y="97.9" type="line"/>
      <point x="302.04" y="710.0" type="line"/>
      <point x="53.0" y="710.0" type="line"/>
      <point x="53.0" y="661.25" type="line"/>
      <point x="66.0" y="661.25" type="line" smooth="yes"/>
      <point x="123.5" y="661.25"/>
      <point x="165.5" y="654.25"/>
      <point x="165.5" y="625.25" type="curve" smooth="yes"/>
      <point x="165.5" y="89.75" type="line" smooth="yes"/>
      <point x="165.5" y="60.75"/>
      <point x="123.5" y="48.75"/>
      <point x="66.0" y="48.75" type="curve" smooth="yes"/>
      <point x="53.0" y="48.75" type="line"/>
    </contour>
  </outline>
</glyph>
<glyph name="Y" format="2">
  <advance width="797.78"/>
  <unicode hex="0059"/>
  <anchor x="402.46000000000004" y="741.0" name="top"/>
  <anchor x="402.46000000000004" y="0.0" name="bottom"/>
  <outline>
    <contour>
      <point x="351.48" y="315.6" type="line"/>
      <point x="351.48" y="84.75" type="line" smooth="yes"/>
      <point x="351.48" y="55.75"/>
      <point x="308.98" y="48.75"/>
      <point x="251.48000000000002" y="48.75" type="curve" smooth="yes"/>
      <point x="232.89999999999998" y="48.75" type="line"/>
      <point x="232.89999999999998" y="0.0" type="line"/>
      <point x="569.48" y="0.0" type="line"/>
      <point x="569.48" y="48.75" type="line"/>
      <point x="550.48" y="48.75" type="line" smooth="yes"/>
      <point x="492.98" y="48.75"/>
      <point x="450.56" y="55.75"/>
      <point x="450.56" y="84.75" type="curve" smooth="yes"/>
      <point x="450.56" y="315.6" type="line"/>
      <point x="436.72" y="268.6" type="line"/>
      <point x="677.3" y="620.25" type="line" smooth="yes"/>
      <point x="702.38" y="657.1"/>
      <point x="737.22" y="661.25"/>
      <point x="777.22" y="661.25" type="curve" smooth="yes"/>
      <point x="783.22" y="661.25" type="line"/>
      <point x="783.22" y="710.0" type="line"/>
      <point x="503.56" y="710.0" type="line"/>
      <point x="503.56" y="661.25" type="line"/>
      <point x="521.06" y="661.25" type="line" smooth="yes"/>
      <point x="565.56" y="661.25"/>
      <point x="618.56" y="654.25"/>
      <point x="618.56" y="643.25" type="curve"/>
      <point x="398.56" y="323.6" type="line"/>
      <point x="431.12" y="321.8" type="line"/>
      <point x="198.68" y="651.25" type="line"/>
      <point x="198.68" y="658.25"/>
      <point x="253.76" y="661.25"/>
      <point x="296.18" y="661.25" type="curve" smooth="yes"/>
      <point x="316.18" y="661.25" type="line"/>
      <point x="316.18" y="710.0" type="line"/>
      <point x="14.56" y="710.0" type="line"/>
      <point x="14.56" y="661.25" type="line"/>
      <point x="20.560000000000002" y="661.25" type="line" smooth="yes"/>
      <point x="60.56" y="661.25"/>
      <point x="91.22" y="661.25"/>
      <point x="110.06" y="635.25" type="curve" smooth="yes"/>
      <point x="367.18" y="270.6" type="line"/>
    </contour>
  </outline>
</glyph>
<glyph name="asciicircum" format="2">
  <advance width="589.6800000000001"/>
  <unicode hex="005E"/>
  <outline>
    <contour>
      <point x="132.32" y="363.3" type="line"/>
      <point x="300.6" y="685.0" type="line"/>
      <point x="305.1" y="710.0" type="line"/>
      <point x="249.10000000000002" y="710.0" type="line"/>
      <point x="61.8" y="363.3" type="line"/>
    </contour>
    <contour>
      <point x="453.08000000000004" y="363.3" type="line"/>
      <point x="527.8" y="363.3" type="line"/>
      <point x="340.34000000000003" y="710.0" type="line"/>
      <point x="281.72" y="710.0" type="line"/>
      <point x="283.8" y="686.0" type="line"/>
    </contour>
  </outline>
</glyph>
<glyph name="c" format="2">
  <advance width="651"/>
  <unicode hex="0063"/>
  <anchor x="347.5" y="551.0" name="top"/>
  <anchor x="359.24" y="0.0" name="bottom"/>
  <outline>
    <contour>
      <point x="360.9" y="49.05" type="curve" smooth="yes"/>
      <point x="230.54" y="49.05"/>
      <point x="154.5" y="131.85"/>
      <point x="154.5" y="254.15" type="curve" smooth="yes"/>
      <point x="154.5" y="373.65"/>
      <point x="228.16" y="459.4"/>
      <point x="370.28" y="459.4" type="curve" smooth="yes"/>
      <point x="450.3" y="459.4"/>
      <point x="521.5" y="426.65"/>
      <point x="549.2" y="383.15" type="curve"/>
      <point x="559.24" y="415.75"/>
      <point x="534.2" y="437.2"/>
      <point x="500.52" y="442.05" type="curve"/>
      <point x="500.52" y="327.85" type="line"/>
      <point x="596.5" y="327.85" type="line"/>
      <point x="596.5" y="452.8" type="line"/>
      <point x="568.48" y="477.45"/>
      <point x="487.78" y="518.3"/>
      <point x="370.28" y="518.3" type="curve" smooth="yes"/>
      <point x="179.89999999999998" y="518.3"/>
      <point x="53.6" y="411.75"/>
      <point x="53.6" y="254.15" type="curve" smooth="yes"/>
      <point x="53.6" y="99.3"/>
      <point x="175.28" y="-10.0"/>
      <point x="357.96000000000004" y="-10.0" type="curve" smooth="yes"/>
      <point x="487.22" y="-10.0"/>
      <point x="559.24" y="45.35"/>
      <point x="609.92" y="113.5" type="curve"/>
      <point x="562.1800000000001" y="155.8" type="line"/>
      <point x="526.12" y="108.9"/>
      <point x="467.48" y="49.05"/>
    </contour>
  </outline>
</glyph>
<glyph name="h" format="2">
  <advance width="750"/>
  <unicode hex="0068"/>
  <anchor x="393.38" y="753.75" name="top"/>
  <anchor x="381.06" y="0.0" name="bottom"/>
  <outline>
    <contour>
      <point x="722.4" y="0.0" type="line"/>
      <point x="722.4" y="46.55" type="line"/>
      <point x="719.98" y="46.55" type="line" smooth="yes"/>
      <point x="664.74" y="46.55"/>
      <point x="623.9" y="53.5"/>
      <point x="623.9" y="82.05" type="curve" smooth="yes"/>
      <point x="623.9" y="356.3" type="line" smooth="yes"/>
      <point x="623.9" y="467.6"/>
      <point x="550.16" y="518.3"/>
      <point x="438.14" y="518.3" type="curve" smooth="yes"/>
      <point x="346.78" y="518.3"/>
      <point x="284.98" y="481.5"/>
      <point x="221.48000000000002" y="408.15" type="curve"/>
      <point x="221.48000000000002" y="337.75" type="line"/>
      <point x="277.3" y="412.2"/>
      <point x="342.03999999999996" y="452.2"/>
      <point x="423.0" y="452.2" type="curve" smooth="yes"/>
      <point x="501.91999999999996" y="452.2"/>
      <point x="528.6" y="419.1"/>
      <point x="528.6" y="346.3" type="curve" smooth="yes"/>
      <point x="528.6" y="56.45" type="line" smooth="yes"/>
      <point x="528.6" y="49.5"/>
      <point x="475.6" y="46.55"/>
      <point x="442.6" y="46.55" type="curve" smooth="yes"/>
      <point x="440.18" y="46.55" type="line"/>
      <point x="440.18" y="0.0" type="line"/>
    </contour>
    <contour>
      <point x="239.08" y="735.0" type="line"/>
      <point x="43.94" y="735.0" type="line"/>
      <point x="43.94" y="687.3" type="line"/>
      <point x="56.78" y="685.3" type="line" smooth="yes"/>
      <point x="116.54" y="676.45"/>
      <point x="143.78" y="669.6"/>
      <point x="143.78" y="641.25" type="curve" smooth="yes"/>
      <point x="143.78" y="82.05" type="line" smooth="yes"/>
      <point x="143.78" y="53.5"/>
      <point x="102.94" y="46.55"/>
      <point x="46.44" y="46.55" type="curve" smooth="yes"/>
      <point x="43.94" y="46.55" type="line"/>
      <point x="43.94" y="0.0" type="line"/>
      <point x="327.08000000000004" y="0.0" type="line"/>
      <point x="327.08000000000004" y="46.55" type="line"/>
      <point x="323.58000000000004" y="46.55" type="line" smooth="yes"/>
      <point x="291.0" y="46.55"/>
      <point x="239.08" y="49.5"/>
      <point x="239.08" y="56.45" type="curve"/>
    </contour>
  </outline>
</glyph>
<glyph name="u" format="2">
  <advance width="724"/>
  <unicode hex="0075"/>
  <anchor x="337.72" y="551.0" name="top"/>
  <anchor x="526.8199999999999" y="0.0" name="right"/>
  <anchor x="334.78" y="0.0" name="bottom"/>
  <outline>
    <contour>
      <point x="219.4" y="508.3" type="line"/>
      <point x="23.5" y="508.3" type="line"/>
      <point x="23.5" y="460.6" type="line"/>
      <point x="35.66" y="458.6" type="line" smooth="yes"/>
      <point x="95.02" y="450.7"/>
      <point x="124.1" y="442.9"/>
      <point x="124.1" y="414.55" type="curve" smooth="yes"/>
      <point x="124.1" y="152.0" type="line" smooth="yes"/>
      <point x="124.1" y="40.7"/>
      <point x="198.51999999999998" y="-10.0"/>
      <point x="308.70000000000005" y="-10.0" type="curve" smooth="yes"/>
      <point x="398.56" y="-10.0"/>
      <point x="460.36" y="25.4"/>
      <point x="521.6" y="98.1" type="curve"/>
      <point x="521.6" y="169.6" type="line"/>
      <point x="466.96000000000004" y="94.69999999999999"/>
      <point x="402.46000000000004" y="56.1"/>
      <point x="324.68" y="56.1" type="curve" smooth="yes"/>
      <point x="245.92000000000002" y="56.1"/>
      <point x="219.4" y="89.25"/>
      <point x="219.4" y="163.15" type="curve"/>
    </contour>
    <contour>
      <point x="599.3" y="508.3" type="line"/>
      <point x="390.12" y="508.3" type="line"/>
      <point x="390.12" y="460.6" type="line"/>
      <point x="412.36" y="457.65" type="line"/>
      <point x="474.08" y="450.8"/>
      <point x="504.0" y="442.9"/>
      <point x="504.0" y="414.55" type="curve" smooth="yes"/>
      <point x="504.0" y="116.5" type="line"/>
      <point x="512.8199999999999" y="104.9" type="line"/>
      <point x="512.8199999999999" y="0.0" type="line"/>
      <point x="700.3" y="0.0" type="line"/>
      <point x="700.3" y="46.75" type="line"/>
      <point x="696.8" y="46.849999999999994" type="line" smooth="yes"/>
      <point x="640.72" y="47.15"/>
      <point x="599.3" y="54.0"/>
      <point x="599.3" y="82.35" type="curve" smooth="yes"/>
    </contour>
  </outline>
</glyph>
<glyph name="brokenbar" format="2">
  <advance width="329.0"/>
  <unicode hex="00A6"/>
  <outline>
    <contour>
      <point x="124.92" y="751.0" type="line"/>
      <point x="124.92" y="379.0" type="line"/>
      <point x="204.07999999999998" y="379.0" type="line"/>
      <point x="204.07999999999998" y="751.0" type="line"/>
    </contour>
    <contour>
      <point x="124.92" y="241.9" type="line"/>
      <point x="124.92" y="-130.1" type="line"/>
      <point x="204.07999999999998" y="-130.1" type="line"/>
      <point x="204.07999999999998" y="241.9" type="line"/>
    </contour>
  </outline>
</glyph>
<glyph name="verticallinemod" format="2">
  <advance width="588.0"/>
  <unicode hex="02C8"/>
  <outline>
    <contour>
      <point x="254.46" y="546.0" type="line"/>
      <point x="332.96000000000004" y="546.0" type="line"/>
      <point x="332.96000000000004" y="750.0" type="line"/>
      <point x="254.46" y="750.0" type="line"/>
    </contour>
  </outline>
</glyph>
<glyph name="breve" format="2">
  <advance width="587.9200000000001"/>
  <unicode hex="02D8"/>
  <anchor x="294.56" y="517.0" name="_top"/>
  <outline>
    <contour>
      <point x="294.56" y="577.8" type="curve" smooth="yes"/>
      <point x="205.5" y="577.8"/>
      <point x="141.26" y="627.6"/>
      <point x="135.26" y="736.7" type="curve"/>
      <point x="199.76" y="736.7" type="line"/>
      <point x="208.58" y="669.75"/>
      <point x="241.88" y="650.25"/>
      <point x="297.65999999999997" y="650.25" type="curve" smooth="yes"/>
      <point x="352.62" y="650.25"/>
      <point x="385.48" y="669.75"/>
      <point x="394.29999999999995" y="736.7" type="curve"/>
      <point x="453.36" y="736.7" type="line"/>
      <point x="447.36" y="627.6"/>
      <point x="383.12" y="577.8"/>
    </contour>
  </outline>
</glyph>
<glyph name="horizontalbar" format="2">
  <advance width="1110.5"/>
  <unicode hex="2015"/>
  <outline>
    <contour>
      <point x="0.0" y="346.75" type="line"/>
      <point x="0.0" y="283.25" type="line"/>
      <point x="1110.5" y="283.25" type="line"/>
      <point x="1110.5" y="346.75" type="line"/>
    </contour>
  </outline>
</glyph>
<glyph name="approxequal" format="2">
  <advance width="658.0"/>
  <unicode hex="2248"/>
  <outline>
    <contour>
      <point x="418.64" y="315.9" type="curve" smooth="yes"/>
      <point x="513.66" y="315.9"/>
      <point x="559.96" y="379.7"/>
      <point x="581.24" y="455.75" type="curve"/>
      <point x="517.84" y="474.3" type="line"/>
      <point x="500.36" y="437.45"/>
      <point x="486.24" y="393.55"/>
      <point x="432.5" y="393.55" type="curve" smooth="yes"/>
      <point x="360.88" y="393.55"/>
      <point x="321.32" y="464.8"/>
      <point x="225.24" y="464.8" type="curve" smooth="yes"/>
      <point x="134.42000000000002" y="464.8"/>
      <point x="89.54" y="405.3"/>
      <point x="73.84" y="325.2" type="curve"/>
      <point x="138.66" y="306.65" type="line"/>
      <point x="148.16" y="346.15"/>
      <point x="162.84" y="388.1"/>
      <point x="215.58" y="388.1" type="curve" smooth="yes"/>
      <point x="279.18" y="388.1"/>
      <point x="331.65999999999997" y="315.9"/>
    </contour>
    <contour>
      <point x="418.64" y="106.8" type="curve" smooth="yes"/>
      <point x="513.66" y="106.8"/>
      <point x="559.96" y="170.65"/>
      <point x="581.24" y="246.65" type="curve"/>
      <point x="517.84" y="266.15" type="line"/>
      <point x="504.14" y="228.35"/>
      <point x="486.24" y="184.45"/>
      <point x="432.5" y="184.45" type="curve" smooth="yes"/>
      <point x="360.88" y="184.45"/>
      <point x="321.32" y="255.7"/>
      <point x="225.24" y="255.7" type="curve" smooth="yes"/>
      <point x="134.42000000000002" y="255.7"/>
      <point x="89.54" y="196.2"/>
      <point x="73.84" y="116.15" type="curve"/>
      <point x="138.66" y="98.5" type="line"/>
      <point x="148.16" y="137.1"/>
      <point x="162.84" y="179.05"/>
      <point x="215.58" y="179.05" type="curve" smooth="yes"/>
      <point x="279.18" y="179.05"/>
      <point x="331.65999999999997" y="106.8"/>
    </contour>
  </outline>
</glyph>
<glyph name="notequal" format="2">
  <advance width="658.0"/>
  <unicode hex="2260"/>
  <outline>
    <contour>
      <point x="464.9" y="570.25" type="line"/>
      <point x="88.68" y="84.3" type="line"/>
      <point x="173.36" y="84.3" type="line"/>
      <point x="549.58" y="570.25" type="line"/>
    </contour>
    <component base="equal" xOffset="37.72000000000001" yOffset="1.0"/>
  </outline>
</glyph>
<glyph name="f_f_l" format="2">
  <advance width="1173.18"/>
  <unicode hex="FB04"/>
  <outline>
    <contour>
      <point x="43.94" y="508.3" type="line"/>
      <point x="43.94" y="449.9" type="line"/>
      <point x="469.53999999999996" y="449.9" type="line"/>
      <point x="469.53999999999996" y="508.3" type="line"/>
    </contour>
    <contour>
      <point x="438.1" y="508.3" type="line"/>
      <point x="438.1" y="449.9" type="line"/>
      <point x="824.24" y="449.9" type="line"/>
      <point x="824.24" y="508.3" type="line"/>
    </contour>
    <contour>
      <point x="363.88" y="0.0" type="line"/>
      <point x="363.88" y="46.55" type="line"/>
      <point x="358.53999999999996" y="46.55" type="line" smooth="yes"/>
      <point x="303.02" y="46.55"/>
      <point x="261.74" y="49.5"/>
      <point x="261.74" y="56.45" type="curve" smooth="yes"/>
      <point x="261.74" y="558.1" type="line" smooth="yes"/>
      <point x="261.74" y="657.45"/>
      <point x="308.34000000000003" y="680.05"/>
      <point x="373.52" y="680.05" type="curve" smooth="yes"/>
      <point x="408.08000000000004" y="680.05"/>
      <point x="438.58000000000004" y="671.2"/>
      <point x="462.32" y="663.55" type="curve"/>
      <point x="462.32" y="727.8" type="line"/>
      <point x="442.08000000000004" y="733.8"/>
      <point x="407.24" y="737.95"/>
      <point x="374.76" y="737.95" type="curve" smooth="yes"/>
      <point x="268.44" y="737.95"/>
      <point x="166.44" y="695.35"/>
      <point x="166.44" y="555.55" type="curve" smooth="yes"/>
      <point x="166.44" y="82.25" type="line" smooth="yes"/>
      <point x="166.44" y="53.7"/>
      <point x="127.44" y="46.55"/>
      <point x="62.94" y="46.55" type="curve" smooth="yes"/>
      <point x="49.94" y="46.55" type="line"/>
      <point x="49.94" y="0.0" type="line"/>
    </contour>
    <contour>
      <point x="772.74" y="0.0" type="line"/>
      <point x="772.74" y="46.55" type="line"/>
      <point x="757.66" y="46.55" type="line" smooth="yes"/>
      <point x="700.04" y="46.55"/>
      <point x="655.82" y="49.5"/>
      <point x="655.82" y="56.45" type="curve" smooth="yes"/>
      <point x="655.82" y="571.2" type="line" smooth="yes"/>
      <point x="655.82" y="670.85"/>
      <point x="712.32" y="693.85"/>
      <point x="799.28" y="693.85" type="curve" smooth="yes"/>
      <point x="874.5799999999999" y="693.85"/>
      <point x="933.76" y="676.35"/>
      <point x="985.06" y="620.05" type="curve"/>
      <point x="989.28" y="698.75" type="line"/>
      <point x="945.78" y="730.5"/>
      <point x="881.28" y="751.75"/>
      <point x="801.38" y="751.75" type="curve" smooth="yes"/>
      <point x="674.0999999999999" y="751.75"/>
      <point x="560.52" y="709.15"/>
      <point x="560.52" y="569.35" type="curve"/>
      <point x="560.52" y="56.45" type="line" smooth="yes"/>
      <point x="560.52" y="49.5"/>
      <point x="519.24" y="46.55"/>
      <point x="457.84000000000003" y="46.55" type="curve" smooth="yes"/>
      <point x="444.02" y="46.55" type="line"/>
      <point x="444.02" y="0.0" type="line"/>
    </contour>
    <contour>
      <point x="1148.48" y="0.0" type="line"/>
      <point x="1148.48" y="46.55" type="line"/>
      <point x="1145.98" y="46.55" type="line" smooth="yes"/>
      <point x="1089.9" y="46.55"/>
      <point x="1049.98" y="53.5"/>
      <point x="1049.98" y="82.05" type="curve" smooth="yes"/>
      <point x="1049.98" y="734.75" type="line"/>
      <point x="885.3" y="734.75" type="line"/>
      <point x="954.6800000000001" y="696.3" type="line"/>
      <point x="954.6800000000001" y="56.45" type="line" smooth="yes"/>
      <point x="954.6800000000001" y="49.5"/>
      <point x="901.6800000000001" y="46.55"/>
      <point x="868.6800000000001" y="46.55" type="curve" smooth="yes"/>
      <point x="855.6800000000001" y="46.55" type="line"/>
      <point x="855.6800000000001" y="0.0" type="line"/>
    </contour>
  </outline>
</glyph>
<glyph name="blackleftpointingtriangle" format="2">
  <advance width="946.0"/>
  <outline>
    <contour>
      <point x="875.5" y="-39.0" type="line"/>
      <point x="875.5" y="755.0" type="line"/>
      <point x="70.5" y="358.0" type="line"/>
    </contour>
  </outline>
</glyph>
<glyph name="blacktriangle" format="2">
  <advance width="673.5"/>
  <outline>
    <contour>
      <point x="153.0" y="40.0" type="line"/>
      <point x="591.0" y="307.0" type="line"/>
      <point x="153.0" y="575.0" type="line"/>
    </contour>
  </outline>
</glyph>
<glyph name="braceleft.uc" format="2">
  <advance width="397.28"/>
  <outline>
    <contour>
      <point x="287.18" y="276.85" type="curve"/>
      <point x="287.18" y="314.15"/>
      <point x="262.82" y="333.01272955830655"/>
      <point x="130.5" y="347.0" type="curve"/>
      <point x="130.5" y="352.0" type="line"/>
      <point x="262.82" y="365.98727044169345"/>
      <point x="287.18" y="384.9"/>
      <point x="287.18" y="422.15" type="curve" smooth="yes"/>
      <point x="287.18" y="468.7"/>
      <point x="180.9" y="565.45"/>
      <point x="180.9" y="626.95" type="curve" smooth="yes"/>
      <point x="180.9" y="684.25"/>
      <point x="247.20071181628566" y="710.6972975911713"/>
      <point x="373.78" y="709.15" type="curve"/>
      <point x="357.28" y="759.0" type="line"/>
      <point x="214.7225805079915" y="765.8039594906754"/>
      <point x="83.5" y="734.35"/>
      <point x="83.5" y="632.7" type="curve" smooth="yes"/>
      <point x="83.5" y="560.5"/>
      <point x="185.64" y="461.05"/>
      <point x="225.62" y="399.15" type="curve"/>
      <point x="239.74" y="418.9" type="line"/>
      <point x="59.0" y="371.0" type="line"/>
      <point x="59.0" y="328.0" type="line"/>
      <point x="239.74" y="280.1" type="line"/>
      <point x="225.62" y="299.85" type="line"/>
      <point x="185.64" y="238.05"/>
      <point x="83.5" y="138.65"/>
      <point x="83.5" y="66.55" type="curve" smooth="yes"/>
      <point x="83.5" y="-35.35"/>
      <point x="214.72" y="-66.8039594906754"/>
      <point x="357.28" y="-60.0" type="curve"/>
      <point x="373.78" y="-10.150000000000002" type="line"/>
      <point x="247.2" y="-11.697297591136767"/>
      <point x="180.9" y="14.85"/>
      <point x="180.9" y="72.3" type="curve" smooth="yes"/>
      <point x="180.9" y="133.7"/>
      <point x="287.18" y="230.4"/>
    </contour>
  </outline>
</glyph>
<glyph name="breve.uc" format="2">
  <advance width="587.9200000000001"/>
  <anchor x="294.56" y="694.0" name="_top"/>
  <outline>
    <contour>
      <point x="294.56" y="758.3" type="curve" smooth="yes"/>
      <point x="196.51999999999998" y="758.3"/>
      <point x="135.56" y="807.45"/>
      <point x="126.69999999999999" y="899.85" type="curve"/>
      <point x="194.46" y="899.85" type="line"/>
      <point x="205.8" y="848.65"/>
      <point x="238.36" y="831.0"/>
      <point x="297.5" y="831.0" type="curve" smooth="yes"/>
      <point x="356.14" y="831.0"/>
      <point x="386.92" y="848.65"/>
      <point x="398.76" y="899.85" type="curve"/>
      <point x="461.08" y="899.85" type="line"/>
      <point x="452.22" y="807.45"/>
      <point x="392.1" y="758.3"/>
    </contour>
  </outline>
</glyph>
<glyph name="brokenbar.uc" format="2">
  <advance width="329.0"/>
  <outline>
    <contour>
      <point x="203.24" y="424.4" type="line"/>
      <point x="203.24" y="749.5" type="line"/>
      <point x="125.75999999999999" y="749.5" type="line"/>
      <point x="125.75999999999999" y="424.4" type="line"/>
    </contour>
    <contour>
      <point x="125.75999999999999" y="285.4" type="line"/>
      <point x="125.75999999999999" y="-39.7" type="line"/>
      <point x="203.24" y="-39.7" type="line"/>
      <point x="203.24" y="285.4" type="line"/>
    </contour>
  </outline>
</glyph>
<glyph name="circumflex_grave" format="2">
  <advance width="599.4200000000001"/>
  <anchor x="287.6" y="564.0" name="_top"/>
  <outline>
    <contour>
      <point x="471.84000000000003" y="820.05" type="curve" smooth="yes"/>
      <point x="522.48" y="708.05" type="line"/>
      <point x="522.48" y="687.45" type="line"/>
      <point x="490.44" y="687.45" type="line"/>
      <point x="395.72" y="772.25" type="line" smooth="yes"/>
      <point x="375.02" y="792.9"/>
      <point x="361.86" y="814.65"/>
      <point x="361.86" y="834.0" type="curve" smooth="yes"/>
      <point x="361.86" y="857.0"/>
      <point x="380.5" y="874.75"/>
      <point x="408.32" y="874.75" type="curve" smooth="yes"/>
      <point x="436.70000000000005" y="874.75"/>
      <point x="456.18" y="856.6"/>
    </contour>
    <component base="circumflex" xOffset="47.52000000000001"/>
  </outline>
</glyph>
<glyph name="circumflex_hook" format="2">
  <advance width="599.0799999999999"/>
  <anchor x="288.15999999999997" y="559.0" name="_top"/>
  <outline>
    <contour>
      <point x="353.03999999999996" y="796.55" type="line"/>
      <point x="357.26039855816003" y="837.6561602522"/>
      <point x="398.06" y="872.2"/>
      <point x="475.32" y="872.2" type="curve" smooth="yes"/>
      <point x="551.54" y="872.2"/>
      <point x="596.02" y="844.85"/>
      <point x="596.02" y="799.65" type="curve"/>
      <point x="596.02" y="747.45"/>
      <point x="530.6500499961817" y="725.5940499773501"/>
      <point x="458.06" y="720.3" type="curve"/>
      <point x="499.08000000000004" y="745.4" type="line"/>
      <point x="499.08000000000004" y="694.45" type="line"/>
      <point x="433.58" y="694.45" type="line"/>
      <point x="433.58" y="753.75" type="line"/>
      <point x="488.03270104249043" y="756.883011544875"/>
      <point x="512.92" y="772.6"/>
      <point x="512.92" y="797.55" type="curve"/>
      <point x="512.92" y="817.3"/>
      <point x="500.3" y="829.15"/>
      <point x="474.48" y="829.15" type="curve" smooth="yes"/>
      <point x="444.87457627118647" y="829.15"/>
      <point x="432.83045593446786" y="815.44241438685"/>
      <point x="428.6" y="796.55" type="curve"/>
    </contour>
    <component base="circumflex" xOffset="52.84"/>
  </outline>
</glyph>
<glyph name="dong.proportional" format="2">
  <advance width="728.14"/>
  <outline>
    <contour>
      <point x="153.78" y="249.9" type="curve" smooth="yes"/>
      <point x="153.78" y="376.5"/>
      <point x="214.60000000000002" y="458.4"/>
      <point x="328.3" y="458.4" type="curve" smooth="yes"/>
      <point x="419.4" y="458.4"/>
      <point x="484.70000000000005" y="412.3"/>
      <point x="534.62" y="312.5" type="curve"/>
      <point x="576.5999999999999" y="334.25" type="line"/>
      <point x="505.28" y="462.5"/>
      <point x="443.72" y="518.3"/>
      <point x="324.8" y="518.3" type="curve" smooth="yes"/>
      <point x="162.86" y="518.3"/>
      <point x="52.879999999999995" y="409.05"/>
      <point x="52.879999999999995" y="249.9" type="curve" smooth="yes"/>
      <point x="52.879999999999995" y="93.8"/>
      <point x="158.24" y="-10.2"/>
      <point x="316.44" y="-10.2" type="curve" smooth="yes"/>
      <point x="437.56" y="-10.2"/>
      <point x="497.74" y="50.65"/>
      <point x="577.2" y="176.9" type="curve"/>
      <point x="536.86" y="200.95" type="line"/>
      <point x="484.54" y="102.5"/>
      <point x="418.68" y="49.7"/>
      <point x="323.44" y="49.7" type="curve" smooth="yes"/>
      <point x="213.48000000000002" y="49.7"/>
      <point x="153.78" y="127.2"/>
    </contour>
    <contour>
      <point x="512.26" y="733.75" type="line"/>
      <point x="512.26" y="115.55" type="line"/>
      <point x="520.24" y="113.45" type="line"/>
      <point x="520.24" y="0.0" type="line"/>
      <point x="706.48" y="0.0" type="line"/>
      <point x="706.48" y="46.75" type="line"/>
      <point x="705.48" y="46.849999999999994" type="line"/>
      <point x="648.98" y="47.15"/>
      <point x="607.56" y="54.0"/>
      <point x="607.56" y="82.35" type="curve" smooth="yes"/>
      <point x="607.56" y="733.75" type="line"/>
    </contour>
    <contour>
      <point x="135.28" y="-125.85" type="line"/>
      <point x="135.28" y="-188.1" type="line"/>
      <point x="641.26" y="-188.1" type="line"/>
      <point x="641.26" y="-125.85" type="line"/>
    </contour>
    <contour>
      <point x="293.74" y="624.75" type="line"/>
      <point x="293.74" y="570.6" type="line"/>
      <point x="726.22" y="570.6" type="line"/>
      <point x="726.22" y="624.75" type="line"/>
    </contour>
  </outline>
</glyph>
<glyph name="dotaccentcomb" format="2">
  <anchor x="-302.82" y="526.0" name="_top"/>
  <outline>
    <contour>
      <point x="-355.46000000000004" y="615.85" type="curve" smooth="yes"/>
      <point x="-316.70000000000005" y="615.85"/>
      <point x="-287.88" y="639.5"/>
      <point x="-287.88" y="678.65" type="curve" smooth="yes"/>
      <point x="-287.88" y="716.85"/>
      <point x="-316.70000000000005" y="740.5"/>
      <point x="-355.46000000000004" y="740.5" type="curve" smooth="yes"/>
      <point x="-394.64" y="740.5"/>
      <point x="-423.46000000000004" y="716.85"/>
      <point x="-423.46000000000004" y="678.65" type="curve" smooth="yes"/>
      <point x="-423.46000000000004" y="639.45"/>
      <point x="-394.64" y="615.85"/>
    </contour>
  </outline>
</glyph>
<glyph name="f_f_i.alt" format="2">
  <advance width="1168.1399999999999"/>
  <outline>
    <contour>
      <point x="43.94" y="508.3" type="line"/>
      <point x="43.94" y="449.9" type="line"/>
      <point x="472.48" y="449.9" type="line"/>
      <point x="472.48" y="508.3" type="line"/>
    </contour>
    <contour>
      <point x="438.1" y="508.3" type="line"/>
      <point x="438.1" y="449.9" type="line"/>
      <point x="947.62" y="449.9" type="line"/>
      <point x="947.62" y="508.3" type="line"/>
    </contour>
    <contour>
      <point x="855.6800000000001" y="0.0" type="line"/>
      <point x="1148.48" y="0.0" type="line"/>
      <point x="1148.48" y="46.55" type="line"/>
      <point x="1147.24" y="46.55" type="line" smooth="yes"/>
      <point x="1090.74" y="46.55"/>
      <point x="1049.98" y="53.5"/>
      <point x="1049.98" y="82.05" type="curve" smooth="yes"/>
      <point x="1049.98" y="508.3" type="line"/>
      <point x="854.8399999999999" y="508.3" type="line"/>
      <point x="854.8399999999999" y="449.9" type="line"/>
      <point x="867.6800000000001" y="449.9" type="line" smooth="yes"/>
      <point x="928.52" y="449.9"/>
      <point x="954.6800000000001" y="434.2"/>
      <point x="954.6800000000001" y="405.85" type="curve"/>
      <point x="954.6800000000001" y="56.45" type="line"/>
      <point x="954.6800000000001" y="49.5"/>
      <point x="901.6800000000001" y="46.55"/>
      <point x="868.6800000000001" y="46.55" type="curve" smooth="yes"/>
      <point x="855.6800000000001" y="46.55" type="line"/>
    </contour>
    <contour>
      <point x="655.82" y="56.45" type="curve" smooth="yes"/>
      <point x="655.82" y="569.1" type="line" smooth="yes"/>
      <point x="655.82" y="656.4"/>
      <point x="706.0" y="694.05"/>
      <point x="823.6800000000001" y="694.05" type="curve" smooth="yes"/>
      <point x="904.0799999999999" y="694.05"/>
      <point x="956.56" y="673.25"/>
      <point x="990.28" y="647.05" type="curve"/>
      <point x="1004.9200000000001" y="664.25"/>
      <point x="975.14" y="710.55"/>
      <point x="940.72" y="709.7" type="curve"/>
      <point x="940.72" y="611.95" type="line"/>
      <point x="1032.5" y="611.95" type="line"/>
      <point x="1032.5" y="712.45" type="line"/>
      <point x="1011.68" y="723.0"/>
      <point x="939.76" y="751.75"/>
      <point x="823.6800000000001" y="751.75" type="curve" smooth="yes"/>
      <point x="661.52" y="751.75"/>
      <point x="560.52" y="687.3"/>
      <point x="560.52" y="568.4" type="curve" smooth="yes"/>
      <point x="560.52" y="56.45" type="line"/>
      <point x="560.52" y="49.5"/>
      <point x="519.24" y="46.55"/>
      <point x="457.84000000000003" y="46.55" type="curve" smooth="yes"/>
      <point x="444.02" y="46.55" type="line"/>
      <point x="444.02" y="0.0" type="line"/>
      <point x="772.74" y="0.0" type="line"/>
      <point x="772.74" y="46.55" type="line"/>
      <point x="757.66" y="46.55" type="line" smooth="yes"/>
      <point x="700.04" y="46.55"/>
      <point x="655.82" y="49.5"/>
    </contour>
    <contour>
      <point x="261.74" y="56.45" type="curve" smooth="yes"/>
      <point x="261.74" y="549.6" type="line" smooth="yes"/>
      <point x="261.74" y="636.9"/>
      <point x="310.70000000000005" y="674.55"/>
      <point x="433.26" y="674.55" type="curve" smooth="yes"/>
      <point x="519.26" y="674.55"/>
      <point x="574.78" y="652.8"/>
      <point x="609.74" y="606.75" type="curve"/>
      <point x="624.72" y="645.45"/>
      <point x="594.52" y="690.1"/>
      <point x="560.52" y="670.25" type="curve"/>
      <point x="560.52" y="543.95" type="line"/>
      <point x="650.38" y="592.95" type="line"/>
      <point x="650.38" y="673.55" type="line"/>
      <point x="623.5" y="699.1"/>
      <point x="555.38" y="732.25"/>
      <point x="433.26" y="732.25" type="curve" smooth="yes"/>
      <point x="266.18" y="732.25"/>
      <point x="166.44" y="667.8"/>
      <point x="166.44" y="548.9" type="curve" smooth="yes"/>
      <point x="166.44" y="82.25" type="line"/>
      <point x="166.44" y="53.7"/>
      <point x="127.44" y="46.55"/>
      <point x="62.94" y="46.55" type="curve" smooth="yes"/>
      <point x="49.94" y="46.55" type="line"/>
      <point x="49.94" y="0.0" type="line"/>
      <point x="363.88" y="0.0" type="line"/>
      <point x="363.88" y="46.55" type="line"/>
      <point x="358.53999999999996" y="46.55" type="line" smooth="yes"/>
      <point x="303.02" y="46.55"/>
      <point x="261.74" y="49.5"/>
    </contour>
  </outline>
</glyph>
<glyph name="liraTurkish" format="2">
  <advance width="658.24"/>
  <outline>
    <contour>
      <point x="39.019999999999996" y="411.65" type="line"/>
      <point x="39.019999999999996" y="357.9" type="line"/>
      <point x="495.86" y="533.35" type="line"/>
      <point x="495.86" y="587.1" type="line"/>
    </contour>
    <contour>
      <point x="39.019999999999996" y="247.55" type="line"/>
      <point x="39.019999999999996" y="193.8" type="line"/>
      <point x="495.86" y="369.25" type="line"/>
      <point x="495.86" y="423.0" type="line"/>
    </contour>
    <contour>
      <point x="313.46" y="58.8" type="curve" smooth="yes"/>
      <point x="249.42000000000002" y="58.8" type="line"/>
      <point x="249.42000000000002" y="625.25" type="line" smooth="yes"/>
      <point x="249.42000000000002" y="654.25"/>
      <point x="290.82" y="661.25"/>
      <point x="348.88" y="661.25" type="curve" smooth="yes"/>
      <point x="361.88" y="661.25" type="line"/>
      <point x="361.88" y="710.0" type="line"/>
      <point x="39.019999999999996" y="710.0" type="line"/>
      <point x="39.019999999999996" y="661.25" type="line"/>
      <point x="49.92" y="661.25" type="line" smooth="yes"/>
      <point x="107.84" y="661.25"/>
      <point x="149.92" y="654.25"/>
      <point x="149.92" y="625.25" type="curve" smooth="yes"/>
      <point x="149.92" y="84.75" type="line" smooth="yes"/>
      <point x="149.92" y="55.75"/>
      <point x="107.84" y="48.75"/>
      <point x="49.92" y="48.75" type="curve" smooth="yes"/>
      <point x="39.019999999999996" y="48.75" type="line"/>
      <point x="39.019999999999996" y="0.0" type="line"/>
      <point x="298.2" y="0.0" type="line" smooth="yes"/>
      <point x="504.22" y="0.0"/>
      <point x="614.3199999999999" y="96.0"/>
      <point x="624.8199999999999" y="275.45" type="curve"/>
      <point x="545.92" y="299.3" type="line"/>
      <point x="541.86" y="143.9"/>
      <point x="464.48" y="58.8"/>
    </contour>
  </outline>
</glyph>
<glyph name="nine.lin" format="2">
  <advance width="658.0"/>
  <outline>
    <contour>
      <point x="109.66" y="46.55" type="line"/>
      <point x="360.53771972532" y="61.040736342769996"/>
      <point x="508.18" y="179.3"/>
      <point x="508.18" y="401.1" type="curve" smooth="yes"/>
      <point x="508.18" y="591.05"/>
      <point x="437.26" y="658.5"/>
      <point x="321.15999999999997" y="658.5" type="curve" smooth="yes"/>
      <point x="216.68" y="658.5"/>
      <point x="150.72" y="598.55"/>
      <point x="150.72" y="496.85" type="curve" smooth="yes"/>
      <point x="150.72" y="408.25"/>
      <point x="204.12" y="340.45"/>
      <point x="310.54" y="340.45" type="curve" smooth="yes"/>
      <point x="408.98" y="340.45"/>
      <point x="482.0" y="398.05"/>
      <point x="524.6800000000001" y="484.7" type="curve"/>
      <point x="537.6800000000001" y="431.55" type="line"/>
      <point x="506.46000000000004" y="351.6"/>
      <point x="414.03999999999996" y="278.95"/>
      <point x="294.02" y="278.95" type="curve" smooth="yes"/>
      <point x="151.5" y="278.95"/>
      <point x="47.72" y="366.05"/>
      <point x="47.72" y="496.5" type="curve" smooth="yes"/>
      <point x="47.72" y="630.1"/>
      <point x="163.5" y="720.0"/>
      <point x="321.15999999999997" y="720.0" type="curve" smooth="yes"/>
      <point x="491.41999999999996" y="720.0"/>
      <point x="609.08" y="620.5"/>
      <point x="609.08" y="400.55" type="curve" smooth="yes"/>
      <point x="609.08" y="161.25"/>
      <point x="424.29126426884" y="3.57302481228"/>
      <point x="120.28" y="-14.95" type="curve"/>
    </contour>
  </outline>
</glyph>
<glyph name="peseta.proportional" format="2">
  <advance width="963.94"/>
  <outline>
    <contour>
      <point x="50.9" y="0.0" type="line"/>
      <point x="371.53999999999996" y="0.0" type="line"/>
      <point x="371.53999999999996" y="48.75" type="line"/>
      <point x="339.53999999999996" y="48.75" type="line" smooth="yes"/>
      <point x="301.64" y="48.75"/>
      <point x="253.24" y="51.75"/>
      <point x="253.24" y="58.75" type="curve" smooth="yes"/>
      <point x="253.24" y="274.0" type="line"/>
      <point x="286.94" y="274.0" type="line" smooth="yes"/>
      <point x="476.46000000000004" y="274.0"/>
      <point x="588.6600000000001" y="366.0"/>
      <point x="588.6600000000001" y="495.5" type="curve" smooth="yes"/>
      <point x="588.6600000000001" y="625.8"/>
      <point x="482.3" y="710.0"/>
      <point x="292.94" y="710.0" type="curve" smooth="yes"/>
      <point x="50.9" y="710.0" type="line"/>
      <point x="50.9" y="661.25" type="line"/>
      <point x="63.9" y="661.25" type="line" smooth="yes"/>
      <point x="115.52" y="661.25"/>
      <point x="153.74" y="654.25"/>
      <point x="153.74" y="625.25" type="curve" smooth="yes"/>
      <point x="153.74" y="84.75" type="line" smooth="yes"/>
      <point x="153.74" y="55.75"/>
      <point x="115.52" y="48.75"/>
      <point x="63.9" y="48.75" type="curve" smooth="yes"/>
      <point x="50.9" y="48.75" type="line"/>
    </contour>
    <contour>
      <point x="291.68" y="650.85" type="line" smooth="yes"/>
      <point x="421.98" y="650.85"/>
      <point x="484.82" y="592.75"/>
      <point x="484.82" y="494.5" type="curve" smooth="yes"/>
      <point x="484.82" y="396.25"/>
      <point x="422.14" y="331.25"/>
      <point x="285.68" y="331.25" type="curve" smooth="yes"/>
      <point x="253.24" y="331.25" type="line"/>
      <point x="253.24" y="650.85" type="line"/>
    </contour>
    <contour>
      <point x="563.3199999999999" y="449.0" type="line"/>
      <point x="932.2" y="449.0" type="line"/>
      <point x="932.2" y="508.0" type="line"/>
      <point x="744.04" y="508.0" type="line"/>
      <point x="697.3" y="553.45" type="line"/>
      <point x="697.3" y="511.9"/>
      <point x="668.1" y="502.85"/>
      <point x="609.36" y="502.85" type="curve" smooth="yes"/>
      <point x="563.3199999999999" y="502.85" type="line"/>
    </contour>
    <contour>
      <point x="779.48" y="140.0" type="curve" smooth="yes"/>
      <point x="779.48" y="648.0" type="line"/>
      <point x="697.3" y="648.0" type="line"/>
      <point x="697.3" y="500.0" type="line"/>
      <point x="684.1800000000001" y="489.95" type="line"/>
      <point x="684.1800000000001" y="139.0" type="line" smooth="yes"/>
      <point x="684.1800000000001" y="15.8"/>
      <point x="768.94" y="-11.0"/>
      <point x="860.86" y="-11.0" type="curve" smooth="yes"/>
      <point x="891.24" y="-11.0"/>
      <point x="917.22" y="-7.0"/>
      <point x="934.44" y="-1.9499999999999993" type="curve"/>
      <point x="934.44" y="57.15" type="line"/>
      <point x="920.3199999999999" y="54.25"/>
      <point x="895.98" y="51.3"/>
      <point x="871.2" y="51.3" type="curve" smooth="yes"/>
      <point x="815.12" y="51.3"/>
      <point x="779.48" y="71.9"/>
    </contour>
  </outline>
</glyph>
<glyph name="schwa" format="2">
  <advance width="638.12"/>
  <outline>
    <contour>
      <point x="296.14" y="518.3" type="curve" smooth="yes"/>
      <point x="176.24" y="518.3"/>
      <point x="101.84" y="466.1"/>
      <point x="56.78" y="400.3" type="curve"/>
      <point x="107.88" y="357.95" type="line"/>
      <point x="141.18" y="403.75"/>
      <point x="196.10000000000002" y="459.15"/>
      <point x="294.04" y="459.15" type="curve" smooth="yes"/>
      <point x="410.28" y="459.15"/>
      <point x="494.62" y="386.9"/>
      <point x="494.62" y="258.0" type="curve" smooth="yes"/>
      <point x="494.62" y="127.9"/>
      <point x="416.15999999999997" y="48.9"/>
      <point x="315.14" y="48.9" type="curve" smooth="yes"/>
      <point x="207.88" y="48.9"/>
      <point x="158.24" y="110.1"/>
      <point x="155.18" y="241.1" type="curve"/>
      <point x="124.84" y="218.2" type="line"/>
      <point x="528.88" y="218.2" type="line"/>
      <point x="527.8" y="275.75" type="line"/>
      <point x="53.6" y="275.75" type="line"/>
      <point x="54.68" y="85.3"/>
      <point x="145.64" y="-10.0"/>
      <point x="315.14" y="-10.0" type="curve" smooth="yes"/>
      <point x="470.88" y="-10.0"/>
      <point x="592.42" y="98.85"/>
      <point x="592.42" y="256.1" type="curve" smooth="yes"/>
      <point x="592.42" y="417.3"/>
      <point x="465.0" y="518.3"/>
    </contour>
  </outline>
</glyph>
<glyph name="three.lin" format="2">
  <advance width="658.0"/>
  <outline>
    <contour>
      <point x="318.08000000000004" y="656.25" type="curve" smooth="yes"/>
      <point x="230.38" y="656.25"/>
      <point x="172.60000000000002" y="619.25"/>
      <point x="139.76" y="574.5" type="curve"/>
      <point x="142.42000000000002" y="610.7"/>
      <point x="159.72" y="636.1"/>
      <point x="183.56" y="641.0" type="curve"/>
      <point x="183.56" y="534.6" type="line"/>
      <point x="88.0" y="534.6" type="line"/>
      <point x="88.0" y="629.0" type="line"/>
      <point x="122.24000000000001" y="670.8"/>
      <point x="204.89999999999998" y="718.1"/>
      <point x="320.18" y="718.1" type="curve" smooth="yes"/>
      <point x="463.15999999999997" y="718.1"/>
      <point x="563.44" y="650.95"/>
      <point x="563.44" y="547.25" type="curve" smooth="yes"/>
      <point x="563.44" y="440.05"/>
      <point x="443.58" y="371.0"/>
      <point x="285.6" y="371.0" type="curve"/>
      <point x="309.53999999999996" y="380.55" type="line"/>
      <point x="527.52" y="380.55"/>
      <point x="603.04" y="297.3"/>
      <point x="603.04" y="195.35" type="curve" smooth="yes"/>
      <point x="603.04" y="71.45"/>
      <point x="483.15999999999997" y="-10.0"/>
      <point x="320.86" y="-10.0" type="curve" smooth="yes"/>
      <point x="170.36" y="-10.0"/>
      <point x="79.06" y="63.35"/>
      <point x="32.46" y="154.35" type="curve"/>
      <point x="84.48" y="198.0" type="line"/>
      <point x="117.96000000000001" y="128.0"/>
      <point x="188.12" y="52.0"/>
      <point x="320.86" y="52.0" type="curve" smooth="yes"/>
      <point x="425.9" y="52.0"/>
      <point x="502.14" y="100.65"/>
      <point x="502.14" y="195.8" type="curve" smooth="yes"/>
      <point x="502.14" y="283.0"/>
      <point x="436.8" y="342.5"/>
      <point x="283.1" y="342.5" type="curve" smooth="yes"/>
      <point x="201.28" y="342.5" type="line"/>
      <point x="201.28" y="404.05" type="line"/>
      <point x="267.15999999999997" y="404.05" type="line" smooth="yes"/>
      <point x="386.9" y="404.05"/>
      <point x="465.48" y="447.65"/>
      <point x="465.48" y="535.6" type="curve" smooth="yes"/>
      <point x="465.48" y="621.0"/>
      <point x="400.6" y="656.25"/>
    </contour>
  </outline>
</glyph>
<glyph name="two.old" format="2">
  <advance width="658.0"/>
  <outline>
    <contour>
      <point x="317.24" y="498.15" type="curve" smooth="yes"/>
      <point x="229.8" y="498.15"/>
      <point x="163.66" y="458.25"/>
      <point x="125.08" y="409.7" type="curve"/>
      <point x="130.9" y="447.8"/>
      <point x="144.07999999999998" y="472.2"/>
      <point x="171.92" y="474.25" type="curve"/>
      <point x="171.92" y="367.2" type="line"/>
      <point x="76.36" y="367.2" type="line"/>
      <point x="76.36" y="460.5" type="line"/>
      <point x="111.72" y="505.95"/>
      <point x="203.39999999999998" y="558.0"/>
      <point x="317.24" y="558.0" type="curve" smooth="yes"/>
      <point x="467.34000000000003" y="558.0"/>
      <point x="555.6" y="498.9"/>
      <point x="555.6" y="392.3" type="curve" smooth="yes"/>
      <point x="555.6" y="248.45"/>
      <point x="306.34000000000003" y="133.75"/>
      <point x="95.64" y="48.95" type="curve"/>
      <point x="87.94" y="52.95"/>
      <point x="85.44" y="66.15"/>
      <point x="90.03999999999999" y="76.2" type="curve"/>
      <point x="375.98" y="76.2" type="line" smooth="yes"/>
      <point x="471.1" y="76.2"/>
      <point x="507.48" y="82.19999999999999"/>
      <point x="513.3199999999999" y="115.35" type="curve" smooth="yes"/>
      <point x="523.8199999999999" y="176.95" type="line"/>
      <point x="585.98" y="176.95" type="line"/>
      <point x="585.98" y="0.0" type="line"/>
      <point x="57.04" y="0.0" type="line"/>
      <point x="57.04" y="93.39999999999999" type="line"/>
      <point x="258.34000000000003" y="183.15"/>
      <point x="454.7" y="268.6"/>
      <point x="454.7" y="395.65" type="curve" smooth="yes"/>
      <point x="454.7" y="467.9"/>
      <point x="403.08" y="498.15"/>
    </contour>
  </outline>
</glyph>
<glyph name="whitediamond" format="2">
  <advance width="731.0"/>
  <outline>
    <contour>
      <point x="672.0" y="313.0" type="line"/>
      <point x="365.5" y="574.0" type="line"/>
      <point x="59.0" y="313.0" type="line"/>
      <point x="365.5" y="52.0" type="line"/>
    </contour>
    <contour>
      <point x="579.5" y="313.0" type="line"/>
      <point x="365.5" y="131.0" type="line"/>
      <point x="151.5" y="313.0" type="line"/>
      <point x="365.5" y="495.0" type="line"/>
    </contour>
  </outline>
</glyph>
<glyph name="zero.slash" format="2">
  <advance width="658.0"/>
  <outline>
    <contour>
      <point x="153.78" y="134.0" type="line"/>
      <point x="534.04" y="417.05" type="line"/>
      <point x="508.88" y="474.0" type="line"/>
      <point x="125.2" y="188.1" type="line"/>
    </contour>
    <contour>
      <point x="329.0" y="-11.0" type="curve" smooth="yes"/>
      <point x="495.72" y="-11.0"/>
      <point x="613.94" y="116.5"/>
      <point x="613.94" y="304.0" type="curve" smooth="yes"/>
      <point x="613.94" y="491.5"/>
      <point x="495.72" y="619.0"/>
      <point x="329.0" y="619.0" type="curve" smooth="yes"/>
      <point x="162.28" y="619.0"/>
      <point x="44.06" y="491.5"/>
      <point x="44.06" y="304.0" type="curve" smooth="yes"/>
      <point x="44.06" y="116.5"/>
      <point x="162.28" y="-11.0"/>
    </contour>
    <contour>
      <point x="329.0" y="49.8" type="curve" smooth="yes"/>
      <point x="214.46" y="49.8"/>
      <point x="147.06" y="146.6"/>
      <point x="147.06" y="304.0" type="curve" smooth="yes"/>
      <point x="147.06" y="461.4"/>
      <point x="214.46" y="559.15"/>
      <point x="329.0" y="559.15" type="curve" smooth="yes"/>
      <point x="443.53999999999996" y="559.15"/>
      <point x="510.94" y="461.4"/>
      <point x="510.94" y="304.0" type="curve" smooth="yes"/>
      <point x="510.94" y="145.65"/>
      <point x="443.53999999999996" y="49.8"/>
    </contour>
  </outline>
</glyph>
